<svg width="57" height="13" viewBox="0 0 57 13" fill="none" xmlns="http://www.w3.org/2000/svg">
<path d="M5.832 1.792C6.36 1.792 6.84 1.816 7.308 1.852V0.4C6.264 0.279999 5.892 0.279999 5.184 0.279999C3.12 0.279999 2.256 0.964 2.256 2.404V2.932H0.396V4.648H2.256V10H4.32V4.648H7.308V2.932H4.32C4.356 2.044 4.656 1.792 5.832 1.792ZM15.168 4.648V2.932H11.82V0.879999L9.756 1.468V2.932H7.896V4.648H9.756V7.876C9.756 9.436 10.932 10.12 12.756 10.12C13.704 10.12 14.484 10.06 15.168 9.94V8.284C14.34 8.404 13.98 8.404 13.332 8.404C12.084 8.404 11.82 8.056 11.82 6.688V4.648H15.168ZM23.4189 2.932L20.6589 8.548L17.8869 2.932H15.6069L19.1829 10H22.1109L25.6989 2.932H23.4189ZM32.3832 2.812C30.6672 2.812 29.2752 3.376 28.2672 4.168V2.932H26.2152V10H28.2672V6.04C28.9032 5.296 30.3912 4.588 31.7712 4.588C33.4632 4.588 33.9672 5.368 33.9672 6.868V10H36.0312L36.0552 6.088C36.0312 3.484 34.2672 2.812 32.3832 2.812ZM43.7032 4.648V2.932H40.3552V0.879999L38.2912 1.468V2.932H36.4312V4.648H38.2912V7.876C38.2912 9.436 39.4672 10.12 41.2912 10.12C42.2392 10.12 43.0192 10.06 43.7032 9.94V8.284C42.8752 8.404 42.5152 8.404 41.8672 8.404C40.6192 8.404 40.3552 8.056 40.3552 6.688V4.648H43.7032ZM52.2061 2.932L49.4461 8.764L46.4221 2.932H44.1421L47.8021 10H48.8581L47.4301 13H49.6981L54.4741 2.932H52.2061ZM54.1762 8.392V10H56.2282V8.392H54.1762Z" fill="#F7F7F7"/>
</svg>
