<svg width="88" height="14" viewBox="0 0 88 14" fill="none" xmlns="http://www.w3.org/2000/svg">
<path d="M12.24 1.28V10C12.1973 10.8427 11.8613 11.5147 11.232 12.016C10.6133 12.528 9.87733 12.8853 9.024 13.088C8.18133 13.3013 7.36533 13.408 6.576 13.408C5.40267 13.408 4.432 13.3653 3.664 13.28C2.896 13.2053 2.19733 12.9653 1.568 12.56C0.949333 12.1547 0.64 11.5093 0.64 10.624H4.384C4.384 10.9333 4.51733 11.152 4.784 11.28C5.06133 11.4187 5.30133 11.4933 5.504 11.504C5.71733 11.5147 6.07467 11.52 6.576 11.52C7.056 11.52 7.504 11.3973 7.92 11.152C8.34667 10.9173 8.56 10.48 8.56 9.84V9.072C7.67467 9.88267 6.304 10.288 4.448 10.288C3.63733 10.288 2.912 10.08 2.272 9.664C1.632 9.23733 1.12533 8.68267 0.752 8C0.389333 7.31733 0.197333 6.59733 0.176 5.84V5.776V5.728C0.186667 4.85333 0.373333 4.064 0.736 3.36C1.09867 2.656 1.6 2.10133 2.24 1.696C2.89067 1.29067 3.62667 1.088 4.448 1.088C6.35733 1.03467 7.76 1.44533 8.656 2.32L8.864 1.28H12.24ZM6.288 8.112C6.97067 8.112 7.52 7.89867 7.936 7.472C8.352 7.03467 8.56 6.416 8.56 5.616V5.568C8.56 5.16267 8.464 4.77867 8.272 4.416C8.08 4.05333 7.81333 3.76533 7.472 3.552C7.13067 3.33867 6.752 3.232 6.336 3.232C5.568 3.232 4.976 3.46667 4.56 3.936C4.144 4.39467 3.92533 4.99733 3.904 5.744C3.92533 6.42667 4.13867 6.992 4.544 7.44C4.96 7.888 5.54133 8.112 6.288 8.112ZM16.7671 2.8C17.6205 1.86133 18.9698 1.296 20.8151 1.104V3.888H18.6871C18.0258 3.888 17.5458 4.13867 17.2471 4.64C16.9485 5.13067 16.7991 5.776 16.7991 6.576V10H13.1191V1.28H16.4631L16.7671 2.8ZM33.6043 6H25.0763C25.1509 6.672 25.4016 7.22667 25.8283 7.664C26.2656 8.09067 26.8576 8.304 27.6043 8.304C28.2123 8.304 28.7509 8.16 29.2203 7.872C29.7003 7.57333 29.9403 7.12 29.9403 6.512H33.6043C33.6043 7.74933 33.0709 8.69333 32.0043 9.344C30.9483 9.99467 29.4763 10.32 27.5883 10.32C26.4256 10.32 25.3696 10.1227 24.4203 9.728C23.4709 9.33333 22.7189 8.77867 22.1643 8.064C21.6096 7.33867 21.3323 6.512 21.3323 5.584C21.3323 4.64533 21.6043 3.81867 22.1483 3.104C22.7029 2.37867 23.4549 1.824 24.4043 1.44C25.3643 1.04533 26.4256 0.848 27.5883 0.848C28.7829 0.848 29.8283 1.04 30.7243 1.424C31.6309 1.808 32.3349 2.352 32.8363 3.056C33.3376 3.74933 33.5936 4.56533 33.6043 5.504V5.584H33.6363H33.6043V6ZM27.5883 2.8C26.8843 2.8 26.3456 2.94933 25.9723 3.248C25.5989 3.54667 25.3429 3.96267 25.2043 4.496H29.8443C29.7269 3.96267 29.4923 3.54667 29.1403 3.248C28.7883 2.94933 28.2709 2.8 27.5883 2.8ZM46.6068 1.28L41.2308 11.968C40.8788 12.672 40.1961 13.1253 39.1828 13.328C38.1801 13.5307 37.0494 13.632 35.7908 13.632V10.704C36.3988 10.704 36.8201 10.6667 37.0548 10.592C37.2894 10.5173 37.4068 10.4107 37.4068 10.272C37.4068 10.2293 37.3854 10.1547 37.3428 10.048L32.8468 1.28H36.7828L39.7588 7.728L42.6708 1.28H46.6068ZM52.1756 4.816C52.485 4.816 52.7196 4.81067 52.8796 4.8L53.7916 4.784C55.0503 4.784 56.069 4.94933 56.8476 5.28C57.637 5.6 58.0316 6.24533 58.0316 7.216C58.0316 8.47467 57.445 9.31733 56.2716 9.744C55.109 10.16 53.7756 10.368 52.2716 10.368C50.7783 10.368 49.4076 10.1493 48.1596 9.712C46.9223 9.264 46.3036 8.41067 46.3036 7.152H50.0156C50.0156 7.65333 50.2343 7.98933 50.6716 8.16C51.109 8.32 51.6423 8.4 52.2716 8.4C52.9863 8.4 53.5143 8.31467 53.8556 8.144C54.2076 7.96267 54.3836 7.67467 54.3836 7.28C54.3836 6.928 54.181 6.70933 53.7756 6.624C53.3703 6.528 52.8583 6.48 52.2396 6.48H51.6796C50.709 6.48 49.845 6.432 49.0876 6.336C48.341 6.22933 47.6903 5.984 47.1356 5.6C46.581 5.216 46.3036 4.64 46.3036 3.872C46.3036 2.656 46.901 1.86133 48.0956 1.488C49.301 1.11467 50.6876 0.927999 52.2556 0.927999C53.7383 0.927999 55.0716 1.14667 56.2556 1.584C57.4396 2.02133 58.0316 2.86933 58.0316 4.128L54.3516 4.112C54.3516 3.568 54.0743 3.232 53.5196 3.104C52.965 2.976 52.5276 2.912 52.2076 2.912C51.717 2.912 51.2263 2.97067 50.7356 3.088C50.2556 3.19467 50.0156 3.44 50.0156 3.824C50.0156 4.464 50.7356 4.79467 52.1756 4.816ZM64.6991 0.912C65.8511 0.912 66.8911 1.11467 67.8191 1.52C68.7471 1.92533 69.4725 2.49067 69.9951 3.216C70.5178 3.93067 70.7791 4.736 70.7791 5.632C70.7791 6.51733 70.5125 7.32267 69.9791 8.048C69.4565 8.76267 68.7311 9.32267 67.8031 9.728C66.8858 10.1333 65.8511 10.336 64.6991 10.336C63.5898 10.336 62.5498 10.1333 61.5791 9.728C60.6085 9.312 59.8298 8.74667 59.2431 8.032C58.6671 7.30667 58.3791 6.50667 58.3791 5.632C58.3791 4.74667 58.6671 3.94667 59.2431 3.232C59.8298 2.50667 60.6031 1.94133 61.5631 1.536C62.5338 1.12 63.5791 0.912 64.6991 0.912ZM64.6991 8.048C65.1258 8.048 65.5205 7.95733 65.8831 7.776C66.2565 7.59467 66.5551 7.32267 66.7791 6.96C67.0031 6.58667 67.1151 6.144 67.1151 5.632C67.1151 5.12 67.0031 4.68267 66.7791 4.32C66.5551 3.94667 66.2565 3.66933 65.8831 3.488C65.5205 3.30667 65.1258 3.216 64.6991 3.216C64.2831 3.216 63.8725 3.312 63.4671 3.504C63.0725 3.68533 62.7471 3.95733 62.4911 4.32C62.2351 4.68267 62.1071 5.12 62.1071 5.632C62.1071 6.144 62.2351 6.58133 62.4911 6.944C62.7471 7.30667 63.0725 7.584 63.4671 7.776C63.8725 7.95733 64.2831 8.048 64.6991 8.048ZM78.7451 0.992C80.0571 0.992 81.0705 1.41333 81.7851 2.256C82.5105 3.09867 82.8731 4.48 82.8731 6.4V10H79.1931V6.448C79.1931 5.776 79.1558 5.22667 79.0811 4.8C79.0065 4.37333 78.8251 4.016 78.5371 3.728C78.2491 3.44 77.8011 3.296 77.1931 3.296C76.5531 3.296 76.0785 3.43467 75.7691 3.712C75.4598 3.97867 75.2625 4.32533 75.1771 4.752C75.0918 5.17867 75.0491 5.73867 75.0491 6.432V10H71.3691V1.28H75.0491V2.368C75.8598 1.45067 77.0918 0.992 78.7451 0.992ZM83.6031 7.04V10H87.0751V7.04H83.6031Z" fill="#292929"/>
</svg>
